<?xml version="1.0" encoding="UTF-8" standalone="no"?>
<svg
   xmlns:dc="http://purl.org/dc/elements/1.1/"
   xmlns:cc="http://creativecommons.org/ns#"
   xmlns:rdf="http://www.w3.org/1999/02/22-rdf-syntax-ns#"
   xmlns:svg="http://www.w3.org/2000/svg"
   xmlns="http://www.w3.org/2000/svg"
   id="svg8"
   version="1.1"
   viewBox="0 0 210 297"
   height="297mm"
   width="210mm">
  <defs
     id="defs2" />
  <metadata
     id="metadata5">
    <rdf:RDF>
      <cc:Work
         rdf:about="">
        <dc:format>image/svg+xml</dc:format>
        <dc:type
           rdf:resource="http://purl.org/dc/dcmitype/StillImage" />
        <dc:title></dc:title>
      </cc:Work>
    </rdf:RDF>
  </metadata>
  <g
     id="layer1">
    <g
       id="Arrow_Button"
       transform="matrix(0.26458333,0,0,-0.26458333,-285.6555,289.27038)">
      <circle
         style="fill:#f15f43"
         id="Ellipse_547"
         data-name="Ellipse 547"
         cx="21.5"
         cy="21.5"
         r="21.5"
         transform="translate(1201,335)" />
      <g
         id="Rounded_Rectangle_33_copy_4_1_"
         transform="translate(1214.776,352.401)">
        <path
           style="fill:#ffffff"
           id="Path_28582"
           data-name="Path 28582"
           d="m 207.992,126.394 -6.027,-6.06 a 1.146,1.146 0 0 0 -1.629,0 1.165,1.165 0 0 0 0,1.639 l 6.783,6.82 a 1.306,1.306 0 0 0 1.744,0 l 6.783,-6.82 a 1.165,1.165 0 0 0 0,-1.639 1.146,1.146 0 0 0 -1.628,0 z"
           transform="translate(-199.999,-119.994)" />
      </g>
    </g>
  </g>
</svg>
