<svg xmlns="http://www.w3.org/2000/svg" width="127.798" height="74.14" viewBox="0 0 127.798 74.14">
  <g id="Certificate_Icon" data-name="Certificate Icon" transform="translate(-1060 -2184)">
    <path id="Path_731" data-name="Path 731" d="M-585.633,2221.217c-21.318-8.462-36.134-7-38.849-19.528s12.53-27.5,27.99-30.594,13.344,14.808,33.848,18.226,32.383-9.927,48.168-4.556,21.155,13.344,14.971,26.037-18.174,22.131-39.706,24.735S-564.315,2229.679-585.633,2221.217Z" transform="translate(1684.798 17.262)" fill="#ffc0b4" opacity="0.5"/>
    <path id="print-svgrepo-com" d="M99.962,97.981a5.708,5.708,0,0,1,4.441,1.931,6.014,6.014,0,0,1,1.738,4.441v15.06a6.688,6.688,0,0,1-1.738,4.634,6.014,6.014,0,0,1-4.441,1.738v6.178a5.949,5.949,0,0,1-6.178,6.178H44.357a5.949,5.949,0,0,1-6.178-6.178v-6.178a6.014,6.014,0,0,1-4.441-1.738A6.688,6.688,0,0,1,32,119.412v-15.06a6.014,6.014,0,0,1,1.738-4.441,5.708,5.708,0,0,1,4.441-1.931v-27.8A5.949,5.949,0,0,1,44.357,64H70.808a10.246,10.246,0,0,1,7.53,3.089L96.872,85.624a10.246,10.246,0,0,1,3.089,7.53ZM47.446,73.267V97.981H90.694V88.713H72.159V73.267Zm47.882,41.7a4.792,4.792,0,0,0,3.475-7.916,4.7,4.7,0,0,0-3.475-1.352,4.634,4.634,0,1,0,0,9.267Zm-4.634,13.9V119.6H47.446v9.267Z" transform="translate(1054 2120)" fill="#081536"/>
  </g>
</svg>
