<svg xmlns="http://www.w3.org/2000/svg" width="105" height="105" viewBox="0 0 105 105">
  <g id="city_icon" transform="translate(-820 -2125)">
    <path id="city-svgrepo-com" d="M44.03,13.724H34.309V1.715A1.715,1.715,0,0,0,32.594,0H22.3a1.715,1.715,0,0,0-1.715,1.715V6.862H16.011V1.144A1.143,1.143,0,0,0,14.867,0H13.724A1.143,1.143,0,0,0,12.58,1.144V6.862H8.006V1.144A1.143,1.143,0,0,0,6.862,0H5.718A1.143,1.143,0,0,0,4.575,1.144V6.862H1.715A1.715,1.715,0,0,0,0,8.577V34.309A2.288,2.288,0,0,0,2.287,36.6H43.459a2.288,2.288,0,0,0,2.287-2.287V15.439A1.715,1.715,0,0,0,44.03,13.724ZM9.149,28.877a.857.857,0,0,1-.858.858H5.432a.857.857,0,0,1-.858-.858V26.018a.857.857,0,0,1,.858-.858H8.291a.857.857,0,0,1,.858.858Zm0-6.862a.858.858,0,0,1-.858.858H5.432a.858.858,0,0,1-.858-.858V19.156a.857.857,0,0,1,.858-.858H8.291a.857.857,0,0,1,.858.858Zm0-6.862a.857.857,0,0,1-.858.858H5.432a.857.857,0,0,1-.858-.858V12.294a.857.857,0,0,1,.858-.858H8.291a.857.857,0,0,1,.858.858ZM18.3,28.877a.857.857,0,0,1-.858.858H14.581a.857.857,0,0,1-.858-.858V26.018a.857.857,0,0,1,.858-.858h2.859a.857.857,0,0,1,.858.858Zm0-6.862a.858.858,0,0,1-.858.858H14.581a.858.858,0,0,1-.858-.858V19.156a.857.857,0,0,1,.858-.858h2.859a.857.857,0,0,1,.858.858Zm0-6.862a.857.857,0,0,1-.858.858H14.581a.857.857,0,0,1-.858-.858V12.294a.857.857,0,0,1,.858-.858h2.859a.857.857,0,0,1,.858.858Zm11.436,6.862a.858.858,0,0,1-.858.858H26.018a.858.858,0,0,1-.858-.858V19.156a.857.857,0,0,1,.858-.858h2.859a.857.857,0,0,1,.858.858Zm0-6.862a.857.857,0,0,1-.858.858H26.018a.857.857,0,0,1-.858-.858V12.294a.857.857,0,0,1,.858-.858h2.859a.857.857,0,0,1,.858.858Zm0-6.862a.857.857,0,0,1-.858.858H26.018a.857.857,0,0,1-.858-.858V5.432a.857.857,0,0,1,.858-.858h2.859a.857.857,0,0,1,.858.858ZM41.171,28.877a.857.857,0,0,1-.858.858H37.454a.857.857,0,0,1-.858-.858V26.018a.857.857,0,0,1,.858-.858h2.859a.857.857,0,0,1,.858.858Zm0-6.862a.857.857,0,0,1-.858.858H37.454a.857.857,0,0,1-.858-.858V19.156a.857.857,0,0,1,.858-.858h2.859a.857.857,0,0,1,.858.858Z" transform="translate(850 2159)" fill="#fff"/>
    <g id="Ellipse_1517" data-name="Ellipse 1517" transform="translate(820 2125)" fill="none" stroke="#fff" stroke-width="2">
      <circle cx="52.5" cy="52.5" r="52.5" stroke="none"/>
      <circle cx="52.5" cy="52.5" r="51.5" fill="none"/>
    </g>
  </g>
</svg>
