<svg xmlns="http://www.w3.org/2000/svg" width="1511" height="158.824" viewBox="0 0 1511 158.824">
  <g id="City" transform="translate(0 -1456.151)">
    <g id="layer1" transform="translate(16.971 1331.884)">
      <path id="path34" d="M-16.971,269.935V256.779H-9.3c6.724,0,7.674.679,7.674,5.482,0,4.629,1.023,5.481,6.578,5.481q6.578,0,6.578-3.289c0-1.809.987-3.289,2.193-3.289,1.357,0,2.193-11.694,2.193-30.7v-30.7h7.674c6.724,0,7.674-.679,7.674-5.481s.95-5.481,7.674-5.481c6.212,0,7.674.835,7.674,4.385,0,3.8,1.462,4.385,10.963,4.385H68.539v10.027c0,8.367.636,9.906,3.837,9.3,3.1-.59,3.965-3.468,4.5-14.961.365-7.826,1.6-15.167,2.741-16.313s2.077-4.352,2.077-7.126.987-5.043,2.193-5.043a2.2,2.2,0,0,1,2.193,2.193c0,1.206,3.947,2.193,8.77,2.193h8.77V221.7H109.1c4.8,0,5.481-.95,5.481-7.674,0-5.36.992-7.674,3.289-7.674,1.97,0,3.289-2.022,3.289-5.044A31.65,31.65,0,0,1,123.9,190.36c2.149-4.627,4.28-5.905,9.867-5.919l7.126-.017v18.637c0,18.418.066,18.637,5.481,18.637,5.441,0,5.481-.146,5.481-19.733V182.232H169.4v26.311h13.155l0-13.7,0-13.7,13.159.743,13.159.743v36.884h6.578c5.6,0,6.578.835,6.578,5.642,0,4.2.984,5.451,3.837,4.9,3.341-.648,3.837-3.506,3.837-22.089,0-15.616.736-21.344,2.741-21.342a3.058,3.058,0,0,0,2.741-3.286c0-1.809.987-3.289,2.193-3.289s2.193-1.48,2.193-3.289q0-3.289,6.578-3.289t6.578,3.289a3.056,3.056,0,0,0,2.741,3.285c1.971,0,2.532,3.692,2,13.155l-.742,13.159h22.315V221.7c0,14.91.157,15.348,5.481,15.348,4.385,0,5.481-1.1,5.481-5.482,0-4.8.95-5.481,7.674-5.481h7.674V208.544c0-16.079.365-17.54,4.385-17.54,3.216,0,4.385-1.462,4.385-5.482,0-3.015.872-5.481,1.937-5.481,3,0,5.017-8.808,4.65-20.281-.2-6.168.626-10.415,2.021-10.415s2.355,4.927,2.355,12.059c0,9.258.764,12.059,3.289,12.059,1.827,0,3.289,1.949,3.289,4.385,0,2.412.987,4.385,2.193,4.385s2.193,2.467,2.193,5.482.987,5.481,2.193,5.481c1.267,0,2.193,6.943,2.193,16.444v16.444h24.118v-8.77c0-4.824.987-8.77,2.193-8.77s2.193-4.933,2.193-10.963.987-10.963,2.193-10.963,2.193-2.22,2.193-4.933c0-3.8,1.259-4.933,5.481-4.933s5.481,1.133,5.481,4.933c0,2.769,1.348,4.933,3.073,4.933,2.366,0,3.435,5.8,4.648,25.215l1.575,25.215h19.207V222.8c0-8.039.956-14.252,2.193-14.252,1.206,0,2.193,3.947,2.193,8.77,0,7.893.548,8.77,5.481,8.77,4.02,0,5.481-1.169,5.481-4.385,0-3.654,1.462-4.385,8.77-4.385h8.77v16.444c0,16.079.122,16.444,5.481,16.444,4.02,0,5.481-1.169,5.481-4.385,0-2.412.987-4.385,2.193-4.385s2.193-1.973,2.193-4.385c0-6.732,6.184-5.275,6.98,1.644.413,3.59,2.025,6.03,3.983,6.03,2.456,0,3.609-3.608,4.555-14.252.789-8.886,1.408-11.156,1.644-6.03.261,5.679,1.4,8.222,3.667,8.222,1.809,0,3.289-.987,3.289-2.193s3.837-2.193,8.527-2.193c6.775,0,8.464.788,8.222,3.837-.21,2.652,1.557,4.051,5.725,4.531,4.26.49,6.03,1.938,6.03,4.933,0,3.06,1.524,4.239,5.481,4.239,4.385,0,5.482,1.1,5.482,5.482,0,4.02,1.169,5.481,4.385,5.481q4.385,0,4.385-4.385c0-3.735,1.462-4.385,9.867-4.385,9.063,0,9.867-.447,9.867-5.481,0-3.015.987-5.481,2.193-5.481s2.193,3.947,2.193,8.77c0,7.893.548,8.77,5.481,8.77,5.116,0,5.481-.731,5.481-10.963s.365-10.963,5.481-10.963c4.385,0,5.481,1.1,5.481,5.481,0,4.906.894,5.481,8.515,5.481,6.671,0,8.763.95,9.661,4.385.835,3.193,2.991,4.385,7.93,4.385,5.773,0,6.783.815,6.783,5.482,0,4.629,1.023,5.481,6.578,5.481q6.578,0,6.578-3.289a3.3,3.3,0,0,1,3.289-3.289c2.558,0,3.289,2.923,3.289,13.155v13.155h-649Z" fill="#f15f43"/>
    </g>
    <g id="layer1-2" data-name="layer1" transform="translate(380 1481.228)">
      <path id="path34-2" data-name="path34" d="M632.029,269.935V256.779h-7.674c-6.724,0-7.674.679-7.674,5.482,0,4.629-1.023,5.481-6.578,5.481q-6.578,0-6.578-3.289c0-1.809-.987-3.289-2.193-3.289-1.357,0-2.193-11.694-2.193-30.7v-30.7h-7.674c-6.724,0-7.674-.679-7.674-5.481s-.95-5.481-7.674-5.481c-6.212,0-7.674.835-7.674,4.385,0,3.8-1.462,4.385-10.963,4.385H546.519v10.027c0,8.367-.636,9.906-3.837,9.3-3.1-.59-3.965-3.468-4.5-14.961-.365-7.826-1.6-15.167-2.741-16.313s-2.077-4.352-2.077-7.126-.987-5.043-2.193-5.043a2.2,2.2,0,0,0-2.193,2.193c0,1.206-3.947,2.193-8.77,2.193h-8.77V221.7h-5.481c-4.8,0-5.481-.95-5.481-7.674,0-5.36-.992-7.674-3.289-7.674-1.97,0-3.289-2.022-3.289-5.044a31.651,31.651,0,0,0-2.741-10.946c-2.149-4.627-4.28-5.905-9.867-5.919l-7.126-.017v18.637c0,18.418-.066,18.637-5.481,18.637-5.441,0-5.481-.146-5.481-19.733V182.232H445.661v26.311H432.505l0-13.7,0-13.7-13.159.743-13.159.743v36.884h-6.578c-5.6,0-6.578.835-6.578,5.642,0,4.2-.984,5.451-3.837,4.9-3.341-.648-3.837-3.506-3.837-22.089,0-15.616-.736-21.344-2.741-21.342a3.058,3.058,0,0,1-2.741-3.286c0-1.809-.987-3.289-2.193-3.289s-2.193-1.48-2.193-3.289q0-3.289-6.578-3.289t-6.578,3.289a3.056,3.056,0,0,1-2.741,3.285c-1.971,0-2.532,3.692-2,13.155l.742,13.159H336.033V221.7c0,14.91-.157,15.348-5.481,15.348-4.385,0-5.481-1.1-5.481-5.482,0-4.8-.95-5.481-7.674-5.481h-7.674V208.544c0-16.079-.365-17.54-4.385-17.54-3.216,0-4.385-1.462-4.385-5.482,0-3.015-.872-5.481-1.937-5.481-3,0-5.017-8.808-4.65-20.281.2-6.168-.626-10.415-2.021-10.415s-2.355,4.927-2.355,12.059c0,9.258-.764,12.059-3.289,12.059-1.827,0-3.289,1.949-3.289,4.385,0,2.412-.987,4.385-2.193,4.385s-2.193,2.467-2.193,5.482-.987,5.481-2.193,5.481c-1.267,0-2.193,6.943-2.193,16.444v16.444H250.522v-8.77c0-4.824-.987-8.77-2.193-8.77s-2.193-4.933-2.193-10.963-.987-10.963-2.193-10.963-2.193-2.22-2.193-4.933c0-3.8-1.259-4.933-5.481-4.933s-5.481,1.133-5.481,4.933c0,2.769-1.348,4.933-3.073,4.933-2.366,0-3.435,5.8-4.648,25.215l-1.575,25.215H202.286V222.8c0-8.039-.956-14.252-2.193-14.252-1.206,0-2.193,3.947-2.193,8.77,0,7.893-.548,8.77-5.481,8.77-4.02,0-5.481-1.169-5.481-4.385,0-3.654-1.462-4.385-8.77-4.385H169.4v16.444c0,16.079-.122,16.444-5.481,16.444-4.02,0-5.481-1.169-5.481-4.385,0-2.412-.987-4.385-2.193-4.385s-2.193-1.973-2.193-4.385c0-6.732-6.184-5.275-6.98,1.644-.413,3.59-2.025,6.03-3.983,6.03-2.456,0-3.609-3.608-4.555-14.252-.789-8.886-1.408-11.156-1.644-6.03-.261,5.679-1.4,8.222-3.667,8.222-1.809,0-3.289-.987-3.289-2.193s-3.837-2.193-8.527-2.193c-6.775,0-8.464.788-8.222,3.837.21,2.652-1.557,4.051-5.725,4.531-4.26.49-6.03,1.938-6.03,4.933,0,3.06-1.524,4.239-5.481,4.239-4.385,0-5.482,1.1-5.482,5.482,0,4.02-1.169,5.481-4.385,5.481q-4.385,0-4.385-4.385c0-3.735-1.462-4.385-9.867-4.385-9.063,0-9.867-.447-9.867-5.481,0-3.015-.987-5.481-2.193-5.481s-2.193,3.947-2.193,8.77c0,7.893-.548,8.77-5.481,8.77-5.116,0-5.481-.731-5.481-10.963s-.365-10.963-5.481-10.963c-4.385,0-5.481,1.1-5.481,5.481,0,4.906-.894,5.481-8.515,5.481-6.671,0-8.763.95-9.661,4.385-.835,3.193-2.991,4.385-7.93,4.385-5.773,0-6.783.815-6.783,5.482,0,4.629-1.023,5.481-6.578,5.481q-6.578,0-6.578-3.289a3.3,3.3,0,0,0-3.289-3.289c-2.558,0-3.289,2.923-3.289,13.155v13.155h649Z" transform="translate(16.971 -149.344)" fill="#f15f43"/>
    </g>
    <path id="Plane" d="M67.767-575.9c.024.056.442,1.108.932,2.337s.892,2.257.892,2.305c0,.064-7.7,9.96-7.984,10.265-.064.064-3.229.386-10.048,1.02-11.936,1.1-11.872,1.092-14.667,1.092a36.281,36.281,0,0,1-5.751-.378,11.9,11.9,0,0,1-3.438-.763c-.884-.37-.827-.249-.618-1.333.1-.522.209-1.028.233-1.133.04-.177.04-.177-1-.177H25.261l-.305.442a2.457,2.457,0,0,1-.353.442c-.08,0-1.791-1.4-3.084-2.522-2.289-1.984-6.378-5.727-8.811-8.064a6.339,6.339,0,0,0-1.068-.9c-.177,0-3.269.715-3.325.771-.024.024-.008.1.04.177.241.394,9.269,16.554,9.317,16.667s0,.137-.137.137c-.329,0-.8.161-.8.273a4.062,4.062,0,0,0,.161.61c.088.273.161.514.161.522a37.029,37.029,0,0,1-4.3,1.165C6.594-551.389,1.71-550.1.875-549.815c-.8.273-1.028.627-.691,1.06.265.329.691.45,2.016.57l1.245.112,1.968-.474c2.956-.715,3.807-.924,8.98-2.185l4.755-1.165.426.185c1.5.667,7.012,2.611,9.695,3.414,1.2.361,1.221.37,5.06.8a28.866,28.866,0,0,0,4.659.281c1.084-.008,2.2-.032,2.49-.056.675-.056.594-.024-1.526.667-2.008.651-8.321,2.707-11.141,3.631-1.076.345-2.835.924-3.92,1.277l-3.936,1.285c-1.084.353-2.843.932-3.912,1.277s-2.418.787-2.98.972l-1.028.337-.257-.2c-.145-.112-.835-.659-1.542-1.213-1.092-.859-1.325-1.012-1.566-1.012-.321,0-3.157.241-3.189.273-.016.008.57.546,1.285,1.2a21.137,21.137,0,0,1,2.787,2.819c.651.859,1.245,1.052,3.253,1.044a5.6,5.6,0,0,0,2.329-.289c.53-.161,2.45-.731,4.257-1.269l6.386-1.9c1.7-.514,4.434-1.325,6.064-1.815,2.394-.715,15.117-4.53,16.386-4.916.313-.1.329-.1.731.249.426.353.594.426.594.241,0-.3.683-.61,1.317-.618H52.1l-.369.386c-.578.627-.755,1.084-.5,1.3.112.1.273.088.771-.04.169-.04.217.008.386.361a2.8,2.8,0,0,0,1.4,1.269,15.531,15.531,0,0,0,3.655.3c.241-.032,1.365-.08,2.5-.12a13.954,13.954,0,0,0,2.337-.169,7.816,7.816,0,0,0,1.96-1.285,5.119,5.119,0,0,0,.843-1.96,3.9,3.9,0,0,0-.281-1.791,2.02,2.02,0,0,0-1.3-1.5,1.429,1.429,0,0,1-.418-.2,11.273,11.273,0,0,1,1.349-.185c.739-.072,2.394-.241,3.671-.378s3.831-.345,5.663-.482c7.663-.554,16.313-1.365,19.84-1.855a14.679,14.679,0,0,0,6.8-2.578c1.365-.908,2.2-1.711,2.353-2.257a1.3,1.3,0,0,0-.225-1.253,12.245,12.245,0,0,0-2.892-1.92,9.311,9.311,0,0,1-1.229-.707,9.9,9.9,0,0,0-3.847-1.582c-3.711-.948-4.442-1.052-7.189-.988-2.819.056-9.036.466-14.418.932-1,.088-1.9.161-2.024.161-.217,0-.217-.008-.112-.265.064-.136.827-2.257,1.695-4.707,1.39-3.88,1.574-4.474,1.486-4.611-.056-.088-.851-1.173-1.775-2.4L70.554-576H69.141C68.04-576,67.735-575.976,67.767-575.9Z" transform="translate(559.568 2032.151)" fill="#f15f43"/>
    <path id="Path_732" data-name="Path 732" d="M-1448,2371.123v-29.952h147.528s7.247-12.479,16.482-21.624a95.279,95.279,0,0,1,20.458-14.958h21.519a61.874,61.874,0,0,1,17.491,10.483c7.859,6.963,13.947,17.37,13.947,17.37a94.332,94.332,0,0,1,8.876-7.083,95.342,95.342,0,0,1,9.8-5.811h19.563a29.1,29.1,0,0,1,10.5,5.811c5.187,4.446,10.249,11.974,10.249,11.974a114.587,114.587,0,0,1,12.9-15.938,228.128,228.128,0,0,1,18.819-16.805h27.566s5.133,3.748,10.913,9.043,12.207,12.14,12.207,12.14a106.745,106.745,0,0,1,12.7-4.108,97.146,97.146,0,0,1,12.8-2.117h103.151a58.582,58.582,0,0,1,7,6.225,38.467,38.467,0,0,1,4.855,6.669H-870v38.682Z" transform="translate(2381 -756.148)" fill="#f15f43"/>
  </g>
</svg>
