<svg xmlns="http://www.w3.org/2000/svg" width="60" height="60" viewBox="0 0 60 60">
  <g id="Passport_Icon" data-name="Passport Icon" transform="translate(-565 -910)">
    <circle id="Ellipse_532" data-name="Ellipse 532" cx="30" cy="30" r="30" transform="translate(565 910)" fill="#ffc0b4" opacity="0.5"/>
    <g id="open-passport-svgrepo-com" transform="translate(531.505 921.999)">
      <g id="Group_259" data-name="Group 259" transform="translate(49.495 0.001)">
        <path id="Path_705" data-name="Path 705" d="M97.532,68.9H83.167A1.673,1.673,0,0,0,81.5,70.574V72.4a1.673,1.673,0,0,0,1.671,1.671H97.532A1.673,1.673,0,0,0,99.2,72.4V70.574A1.673,1.673,0,0,0,97.532,68.9Zm.283,3.492a.283.283,0,0,1-.283.283H83.167a.283.283,0,0,1-.283-.283V70.574a.283.283,0,0,1,.283-.283H97.532a.283.283,0,0,1,.283.283Z" transform="translate(-78.323 -62.07)" fill="#081536"/>
        <path id="Path_706" data-name="Path 706" d="M95.327,142.894a8.305,8.305,0,1,0,8.306,8.305A8.315,8.315,0,0,0,95.327,142.894Zm-2.977,2.063a14.132,14.132,0,0,0-1.041,1.853H89.985A6.96,6.96,0,0,1,92.349,144.957Zm-3.905,5.549A6.864,6.864,0,0,1,89.1,148.2h1.664l-.035.1a10.816,10.816,0,0,0-.46,2.2M89.1,154.2a6.864,6.864,0,0,1-.651-2.307h1.78a9.461,9.461,0,0,0,.386,2.307Zm.89,1.388H91.14a11.261,11.261,0,0,0,1.042,1.768A6.956,6.956,0,0,1,89.985,155.589Zm4.648,2.493-.054-.006a.7.7,0,0,0-.1-.129,11.554,11.554,0,0,1-1.785-2.357h1.936Zm0-3.881h-2.57a8.013,8.013,0,0,1-.456-2.307h3.026Zm0-3.7H91.658a9.6,9.6,0,0,1,.376-1.737c.061-.195.128-.385.2-.57h2.4Zm0-3.7H92.861a12.077,12.077,0,0,1,1.625-2.362.7.7,0,0,0,.093-.124l.054-.006v2.493Zm6.036,0H99.344a14.114,14.114,0,0,0-1.041-1.853A6.957,6.957,0,0,1,100.668,146.81Zm-4.648-2.493.053.006a.7.7,0,0,0,.094.125,11.909,11.909,0,0,1,1.625,2.362H96.021Zm0,3.881h2.4c.064.171.126.346.183.525A9.617,9.617,0,0,1,99,150.505H96.021Zm0,3.7h3.026a8.014,8.014,0,0,1-.456,2.307h-2.57Zm.151,6.053a.682.682,0,0,0-.1.129l-.054.006v-2.493h1.936A11.554,11.554,0,0,1,96.172,157.946Zm3.341-2.357h1.155a6.965,6.965,0,0,1-2.2,1.768m3.087-3.157h-1.515a9.469,9.469,0,0,0,.386-2.307h1.78A6.868,6.868,0,0,1,101.558,154.2Zm.651-3.7h-1.821a10.824,10.824,0,0,0-.46-2.2c-.011-.035-.023-.07-.035-.1h1.664A6.862,6.862,0,0,1,102.209,150.505Z" transform="translate(-83.3 -128.724)" fill="#081536"/>
        <g id="Group_258" data-name="Group 258" transform="translate(0 0)">
          <path id="Path_707" data-name="Path 707" d="M307.742,39.173c0,.022,0,.047,0,.071C307.742,39.22,307.742,39.2,307.742,39.173Z" transform="translate(-282.133 -35.289)" fill="#081536"/>
          <path id="Path_708" data-name="Path 708" d="M307.755,40.424c0,.027,0,.056,0,.085C307.756,40.48,307.755,40.451,307.755,40.424Z" transform="translate(-282.145 -36.415)" fill="#081536"/>
          <path id="Path_709" data-name="Path 709" d="M307.77,41.914c0-.035,0-.07,0-.1,0,.033,0,.068,0,.1Z" transform="translate(-282.157 -37.666)" fill="#081536"/>
          <path id="Path_710" data-name="Path 710" d="M307.827,50.612c0,.049,0,.1,0,.151C307.827,50.712,307.827,50.661,307.827,50.612Z" transform="translate(-282.21 -45.593)" fill="#081536"/>
          <path id="Path_711" data-name="Path 711" d="M307.818,48.586c0,.045,0,.092,0,.139C307.818,48.678,307.818,48.631,307.818,48.586Z" transform="translate(-282.202 -43.768)" fill="#081536"/>
          <path id="Path_712" data-name="Path 712" d="M307.806,46.739c0,.044,0,.09,0,.136C307.807,46.829,307.806,46.783,307.806,46.739Z" transform="translate(-282.191 -42.104)" fill="#081536"/>
          <path id="Path_713" data-name="Path 713" d="M307.794,44.926c0,.039,0,.081,0,.122C307.795,45.007,307.794,44.965,307.794,44.926Z" transform="translate(-282.18 -40.471)" fill="#081536"/>
          <path id="Path_714" data-name="Path 714" d="M307.872,62.818c0,.027,0,.055,0,.082C307.872,62.873,307.872,62.845,307.872,62.818Z" transform="translate(-282.25 -56.589)" fill="#081536"/>
          <path id="Path_715" data-name="Path 715" d="M307.847,55.064c0,.045,0,.091,0,.138C307.847,55.155,307.847,55.109,307.847,55.064Z" transform="translate(-282.228 -49.604)" fill="#081536"/>
          <path id="Path_716" data-name="Path 716" d="M307.865,60c0,.041,0,.083,0,.125C307.865,60.082,307.865,60.04,307.865,60Z" transform="translate(-282.244 -54.049)" fill="#081536"/>
          <path id="Path_717" data-name="Path 717" d="M307.837,52.727c0,.048,0,.1,0,.148C307.837,52.825,307.837,52.775,307.837,52.727Z" transform="translate(-282.219 -47.498)" fill="#081536"/>
          <path id="Path_718" data-name="Path 718" d="M307.783,43.28c0,.043,0,.087,0,.133C307.784,43.367,307.783,43.323,307.783,43.28Z" transform="translate(-282.17 -38.988)" fill="#081536"/>
          <path id="Path_719" data-name="Path 719" d="M307.779,42.857v-.014h0Z" transform="translate(-282.166 -38.595)" fill="#081536"/>
          <path id="Path_720" data-name="Path 720" d="M307.892,71.682c0,.01,0,.019,0,.028C307.892,71.7,307.892,71.692,307.892,71.682Z" transform="translate(-282.268 -64.574)" fill="#081536"/>
          <path id="Path_721" data-name="Path 721" d="M307.878,65.49c0,.037,0,.073,0,.11C307.878,65.563,307.878,65.526,307.878,65.49Z" transform="translate(-282.256 -58.996)" fill="#081536"/>
          <path id="Path_722" data-name="Path 722" d="M307.886,68.153c0,.039,0,.077,0,.117C307.886,68.23,307.886,68.192,307.886,68.153Z" transform="translate(-282.263 -61.395)" fill="#081536"/>
          <path id="Path_723" data-name="Path 723" d="M307.855,57.456q0,.064,0,.13Q307.855,57.52,307.855,57.456Z" transform="translate(-282.235 -51.758)" fill="#081536"/>
          <path id="Path_724" data-name="Path 724" d="M76.491,3.754A3.706,3.706,0,0,0,75.21.714,4.255,4.255,0,0,0,71.937.092L51.09,3.119A1.672,1.672,0,0,0,49.5,4.787V35.161a1.673,1.673,0,0,0,1.672,1.671h20.71a1.673,1.673,0,0,0,1.671-1.671v-.377h1.2a1.681,1.681,0,0,0,1.142-.487,2.269,2.269,0,0,0,.6-1.686c0-1.181,0-3.448.006-6.22C76.508,18.288,76.523,6.041,76.491,3.754ZM72.16,35.161a.283.283,0,0,1-.283.283H51.167a.283.283,0,0,1-.283-.283V4.787a.283.283,0,0,1,.283-.283h20.71a.283.283,0,0,1,.283.283Zm2.944-2.55c0,.479-.134.765-.367.785H73.549V4.787a1.673,1.673,0,0,0-1.671-1.671h-11.1L72.16,1.463l.056-.011a2.911,2.911,0,0,1,2.144.36A2.417,2.417,0,0,1,75.1,3.774c0,.035,0,.072,0,.111,0,.022,0,.047,0,.071v.053c0,.027,0,.056,0,.085s0,.034,0,.053,0,.068,0,.1v.014c0,.01,0,.019,0,.029,0,.043,0,.087,0,.133,0,.01,0,.02,0,.031,0,.039,0,.081,0,.122,0,.019,0,.038,0,.058,0,.044,0,.09,0,.136,0,.016,0,.031,0,.047,0,.045,0,.092,0,.139,0,.02,0,.041,0,.061,0,.049,0,.1,0,.151,0,.02,0,.039,0,.059v.148c0,.028,0,.056,0,.084,0,.045,0,.091,0,.138s0,.066,0,.1v.13q0,.06,0,.122c0,.041,0,.083,0,.125s0,.1,0,.154c0,.027,0,.055,0,.082,0,.06,0,.121,0,.182,0,.036,0,.073,0,.11s0,.1,0,.154,0,.077,0,.117q0,.115,0,.233c0,.01,0,.019,0,.028.009,4.784,0,13.181-.009,19.252C75.107,29.161,75.1,31.429,75.1,32.611Z" transform="translate(-49.495 -0.001)" fill="#081536"/>
        </g>
      </g>
    </g>
  </g>
</svg>
