<svg xmlns="http://www.w3.org/2000/svg" width="105" height="105" viewBox="0 0 105 105">
  <g id="people_icon" transform="translate(-983 -2125)">
    <g id="user-couple-svgrepo-com" transform="translate(1011 2163)">
      <path id="Path_28592" data-name="Path 28592" d="M43.834,62.425c-1.52-.562-3.011-1.211-4.49-1.883a6.578,6.578,0,0,1-1.115-.9,1.366,1.366,0,0,0-.574-.28A1.173,1.173,0,0,1,36.5,58.331a6.177,6.177,0,0,1-.181-2.7.953.953,0,0,1,.622-.815c.815-.319,1.61-.67,2.416-1.01.6-.254.638-.465.418-1.089a23.784,23.784,0,0,1-1.371-6.048,24.28,24.28,0,0,0-.393-3.977h-.051c-.026-.121-.042-.242-.071-.36-.58-2.291-3.045-3.539-5.11-3.668l-.05-.006a3.5,3.5,0,0,0-.462.023,16.7,16.7,0,0,0-2.408.912,3.591,3.591,0,0,0-2.144,2.374,16.734,16.734,0,0,0-.59,4.7,23.815,23.815,0,0,1-1.373,6.048c-.216.622-.181.834.421,1.089.806.34,1.6.7,2.415,1.01a.941.941,0,0,1,.621.815,6.178,6.178,0,0,1-.181,2.7,1.17,1.17,0,0,1-1.15,1.028,1.358,1.358,0,0,0-.573.28,6.613,6.613,0,0,1-1.116.9c-.3.137-1.835.79-2.912,1.248-.43-.169-.86-.341-1.294-.509a.984.984,0,0,1-.533-.417,12.494,12.494,0,0,1-.541-1.548,1.073,1.073,0,0,0-.558-.807.46.46,0,0,1-.188-.359c.021-1.212-.261-2.483.638-3.541.031-.031.036-.079.06-.119.481-1.061.57-2.273,1.245-3.259a.157.157,0,0,0,.025-.086c.079-.752.159-1.5.222-2.256A.348.348,0,0,0,22.2,48.6c-.373-.133-.351-.431-.35-.732q0-2.206,0-4.412a2.821,2.821,0,0,0-.9-2.2c-.734-.662-1.491-1.3-2.244-1.941-.366-.309-.4-.547-.058-.885a4.241,4.241,0,0,1,.52-.385l-.114-.17a4.284,4.284,0,0,0-.683,0c-.835.136-1.675.252-2.5.446a10.3,10.3,0,0,0-4.363,1.912,3.905,3.905,0,0,0-1.654,2.737c-.045.619-.039,1.243-.045,1.861-.006,1.01.01,2.021-.012,3.031,0,.165-.1.434-.211.471-.41.133-.42.395-.364.734.036.233.007.479.058.707.141.633.291,1.263.472,1.886a11.358,11.358,0,0,1,.474,1.37,4.651,4.651,0,0,0,1.126,2.469.707.707,0,0,1,.172.469q-.074,1.087-.22,2.169a.525.525,0,0,1-.287.374c-.481.1-.555.469-.669.845-.152.494-.313.988-.509,1.468a.746.746,0,0,1-.354.369c-.857.373-1.727.716-2.588,1.078-.915.385-1.844.754-2.74,1.182-.923.44-1.816.94-2.719,1.422A6.876,6.876,0,0,0,0,65.877v1.584H48.09A6.1,6.1,0,0,0,43.834,62.425Z" transform="translate(0.004 -37.865)" fill="#fff"/>
    </g>
    <g id="Ellipse_1518" data-name="Ellipse 1518" transform="translate(983 2125)" fill="none" stroke="#fff" stroke-width="2">
      <circle cx="52.5" cy="52.5" r="52.5" stroke="none"/>
      <circle cx="52.5" cy="52.5" r="51.5" fill="none"/>
    </g>
  </g>
</svg>
