<svg xmlns="http://www.w3.org/2000/svg" width="105" height="105" viewBox="0 0 105 105">
  <g id="weather_icon" transform="translate(-657 -2125)">
    <path id="weather-overcast-svgrepo-com" d="M51.874,43.326a8.548,8.548,0,1,1-.035,17.1H23.666a4.274,4.274,0,0,1-.783-8.476l-.071-.926a5.984,5.984,0,0,1,5.71-5.977,10.261,10.261,0,0,1,19.12-.6A8.509,8.509,0,0,1,51.874,43.326ZM65.74,43.17,61.253,44.2a9.88,9.88,0,0,0-4.3-2.959l0-2.61ZM14.074,36.644l9.637-2.213a17,17,0,0,0-.855,6.751Zm9.874-17.311,8.378,5.249a16.994,16.994,0,0,0-5.376,4.172ZM43.17,14.074l2.213,9.637a17,17,0,0,0-6.751-.855Zm17.311,9.874-5.249,8.378a17,17,0,0,0-4.172-5.376ZM39.907,26.231A13.676,13.676,0,0,1,53.583,39.907l-.022.791a9.811,9.811,0,0,0-4.73,1.291,11.84,11.84,0,0,0-22.061.688l-.255.016A13.688,13.688,0,0,1,39.907,26.231Z" transform="translate(669.927 2139.927)" fill="#fff"/>
    <g id="Ellipse_1516" data-name="Ellipse 1516" transform="translate(657 2125)" fill="none" stroke="#fff" stroke-width="2">
      <circle cx="52.5" cy="52.5" r="52.5" stroke="none"/>
      <circle cx="52.5" cy="52.5" r="51.5" fill="none"/>
    </g>
  </g>
</svg>
