<svg xmlns="http://www.w3.org/2000/svg" width="141.602" height="144.086" viewBox="0 0 141.602 144.086">
  <g id="Icon_Leadership" data-name="Icon Leadership" transform="translate(-232.407 -1040.631)">
    <path id="Path_680" data-name="Path 680" d="M8273.061,1847.231c-27.366,3.459-27.066,53.869-18.345,81.95s38.719,34.208,63.755,26.765,40.823-35.937,38.192-55.034-28.269-8.308-48.718-21.352S8300.427,1843.772,8273.061,1847.231Z" transform="translate(-8108.219 2458.804) rotate(-22)" fill="#e6f6fc"/>
    <g id="layer1" transform="translate(161.406 952.115)">
      <path id="path34" d="M109.791,221.568c-1.045-.915-1.314-2.133-1.885-8.546-1.026-11.519-.932-11.219-3.5-11.219-2.9,0-4.8-1.567-4.732-3.9.028-.981.481-4.705,1.006-8.275.684-4.646.773-6.551.315-6.7a4.573,4.573,0,0,1-1.492-1.861c-.77-1.488-.713-2.565.587-11.131.792-5.216,1.439-9.77,1.439-10.121a4.979,4.979,0,0,1,1.412-2.05c1.333-1.333,1.777-1.412,7.924-1.412h6.512l4.82,9.693,4.82,9.693-1.879,10.3c-1.9,10.437-2.115,12.548-1.459,14.616.316,1,.1,1.15-1.6,1.15H120.12l-.677,6.76c-1.023,10.213-1.262,11.923-1.79,12.777-.272.441-1.832.9-3.564,1.039-2.428.2-3.338.03-4.3-.811Zm28.761.406c-1.358-.582-1.513-1.245-2.5-10.678-1.039-9.958-.868-9.493-3.483-9.493-2.635,0-4.577-1.555-4.577-3.664,0-.75.91-6.251,2.022-12.226l2.022-10.863-6.625-13.018c-3.644-7.16-6.625-13.678-6.625-14.486a4,4,0,0,1,5.667-3.323c.644.345,2.576,3.238,4.293,6.43l3.121,5.8,9.476-.076c12.457-.1,11.675-.735,13.456,10.934,1.721,11.273,1.736,13.038.127,14.751l-1.256,1.337.968,6.476c.532,3.562.968,7.135.968,7.94,0,2.416-1.307,3.6-4.377,3.95l-2.794.322-.962,9.409c-.529,5.175-1.23,9.678-1.559,10.006-.807.807-5.832,1.127-7.367.469Zm28.206-.026c-1.322-.534-1.263-.227-2.591-13.385l-.682-6.76H161.55c-1.826,0-1.911-.089-1.524-1.582.541-2.087.529-2.383-.349-8.883-.722-5.341-.7-5.7.51-8.63l1.263-3.055-1.482-9.906c-.815-5.448-1.482-10.163-1.482-10.477a4.04,4.04,0,0,1,1.259-1.744c1.157-1.078,2-1.173,10.382-1.173,8.919,0,9.155.032,10.535,1.412a4.978,4.978,0,0,1,1.412,2.05c0,.351.648,4.905,1.439,10.121,1.3,8.566,1.357,9.643.587,11.131a4.573,4.573,0,0,1-1.492,1.861c-.458.153-.369,2.058.315,6.7.525,3.57.978,7.294,1.006,8.275.067,2.336-1.836,3.9-4.75,3.9-2.614,0-2.51-.327-3.476,10.931-.56,6.53-.849,7.927-1.814,8.774-1.228,1.077-4.982,1.309-7.133.44Zm-57.549-70.231a7.742,7.742,0,0,1-2.208-10.7c1.234-1.883,4.23-3.647,6.2-3.649,1.542,0,5.591,1.392,5.591,1.925a13.463,13.463,0,0,1-1.954,2.214,8.27,8.27,0,0,0-2.38,8.837l.769,2.556-2.1-.009a8.643,8.643,0,0,1-3.916-1.172Zm29.43.664c-4.972-2.192-6.091-9.483-1.986-12.938a7.639,7.639,0,1,1,5.9,13.244A11.009,11.009,0,0,1,138.638,152.381Zm27.5-.61a7.73,7.73,0,0,1-3.622-6.755,7.54,7.54,0,0,1,11.329-6.526c3.66,2.231,5.052,6.4,3.341,10.009a7.864,7.864,0,0,1-11.049,3.273Zm-35.114-17.427c-1.261-1.61-4.756-8.37-4.756-9.2a1.438,1.438,0,0,1,.878-1.227c1.336-.513,7.007,8.682,6.373,10.334a1.418,1.418,0,0,1-2.5.092Zm19.059-.1c-.37-.965,4.629-9.87,5.792-10.316a1.444,1.444,0,0,1,1.473.5c.528.636.272,1.517-1.2,4.137-2.762,4.9-3.964,6.493-4.905,6.493A1.347,1.347,0,0,1,150.084,134.248Zm-9.028-3c-.222-.222-.4-2.957-.4-6.079,0-4.673.163-5.738.921-6.029,1.538-.59,1.967,1,1.814,6.712-.118,4.394-.32,5.492-1.037,5.629A1.655,1.655,0,0,1,141.056,131.248Z" transform="translate(0)" fill="#fff" stroke="#007bac" stroke-width="2"/>
    </g>
  </g>
</svg>
