<svg xmlns="http://www.w3.org/2000/svg" width="141.602" height="145.085" viewBox="0 0 141.602 145.085">
  <g id="Icon_Equality" data-name="Icon Equality" transform="translate(-9563.717 -5658.284)">
    <path id="Path_681" data-name="Path 681" d="M23.592,111.623C-3.774,108.164-3.475,57.754,5.247,29.673S43.966-4.535,69,2.908s40.823,35.938,38.192,55.034S78.926,66.249,58.477,79.294,50.958,115.083,23.592,111.623Z" transform="translate(9663.37 5802.37) rotate(-158)" fill="#e6f6fc"/>
    <g id="Group_133" data-name="Group 133" transform="translate(8952 4501)">
      <path id="path60" d="M77.983,220.319c-2.032-.752-2.56-2.534-2.56-8.641a59.7,59.7,0,0,0-.381-7.652l-.381-1.9H66.271l1.946-3.806,1.946-3.806.042-12.484c.041-12.142.083-12.559,1.564-15.225,4.1-7.377,16.245-8.219,21.776-1.509,2.88,3.494,3.424,6.872,3.021,18.782l-.35,10.339L98,197.946a35.365,35.365,0,0,1,1.783,3.855c0,.177-1.918.322-4.263.322H91.256v7.023c0,7.178-.9,11.151-2.557,11.334-2.956.327-9.67.226-10.717-.161ZM79.7,158.106c-2.063-1.044-4.281-4.5-4.281-6.679,0-2.631,1.742-5.864,3.706-6.88,3.594-1.859,9.194-.438,10.91,2.767,1,1.862.9,5.595-.207,7.729-1.672,3.234-6.753,4.77-10.127,3.063Z" transform="translate(627.25 1039.281)" fill="#fff" stroke="#007bac" stroke-width="2"/>
      <path id="path60-2" data-name="path60" d="M42.742,222.622Zm5.842-2.432c-1.342-1.085-1.418-1.595-1.709-11.441l-.3-10.306-2.5-3.714c-2.415-3.594-2.509-3.922-2.911-10.137-.772-11.936.472-17.342,4.814-20.921a13.367,13.367,0,0,1,21.549,6.858c.921,3.422.824,15.253-.158,19.036a21.439,21.439,0,0,1-2.588,5.71c-1.748,2.518-1.771,2.667-2.072,13.088-.372,12.878-.172,12.539-7.55,12.788-4.307.146-5.4-.014-6.574-.961Zm1.8-62.605a8.533,8.533,0,0,1-3.5-6.636c0-3.825,3.894-7.52,7.915-7.52,4.455,0,7.308,3.222,7.308,8.252,0,2.408-.31,3.141-2.071,4.9-1.793,1.793-2.466,2.068-5.024,2.054a10.272,10.272,0,0,1-4.625-1.052Z" transform="translate(597.232 1039.572)" fill="#fff" stroke="#007bac" stroke-width="2"/>
      <path id="path47" d="M78.338,262.426c.167-.214,5.943-7.716,12.837-16.67s12.653-16.281,12.8-16.281,5.9,7.326,12.8,16.281,12.67,16.456,12.837,16.67c.242.311-4.931.389-25.636.389s-25.878-.078-25.636-.389Zm-16.731-38.4v-5.141h11.2c6.159,0,11.265-.107,11.346-.238.11-.177,16.227-.172,16.319,0,.16.306,5.986.306,5.984,0,0-.129,16.2.234,16.2.234h22.123v10.283H61.607Z" transform="translate(576.393 1038.553)" fill="#fff" stroke="#007bac" stroke-width="2"/>
    </g>
  </g>
</svg>
