<svg xmlns="http://www.w3.org/2000/svg" width="141.602" height="144.086" viewBox="0 0 141.602 144.086">
  <g id="Icon_Economic_Empowerment" data-name="Icon Economic Empowerment" transform="translate(-993.001 -1053.001)">
    <path id="Path_680" data-name="Path 680" d="M23.592,111.623C-3.774,108.164-3.475,57.754,5.247,29.673S43.966-4.535,69,2.908s40.823,35.938,38.192,55.034S78.926,66.249,58.477,79.294,50.958,115.082,23.592,111.623Z" transform="translate(1092.654 1197.086) rotate(-158)" fill="#e6f6fc"/>
    <path id="path21" d="M116.945,149.418a21.74,21.74,0,0,1-15.9-15.76,23.99,23.99,0,0,1-.007-10.583,21.9,21.9,0,0,1,16.812-15.983,30.023,30.023,0,0,1,8.881.117,21.859,21.859,0,0,1,16.2,15.39,17.345,17.345,0,0,1,.591,5.768c-.006,4.331-.355,5.917-2.1,9.525a21.983,21.983,0,0,1-13.238,11.251,27.2,27.2,0,0,1-11.245.275Zm7.408-8.609c0-1.621.041-1.734.763-2.108a8.5,8.5,0,0,0,3.159-3.8,9.6,9.6,0,0,0,.025-4.643c-.579-2.084-3.446-4.385-5.482-4.4-2.293-.015-3.4-1.695-2.15-3.277.547-.7.557-.7,4.366-.7h3.817v-4.762h-4.5v-2.646h-4.5v1.582c0,1.576,0,1.584-1.043,2.114-2.559,1.306-3.8,4.668-2.865,7.781a6.84,6.84,0,0,0,4.154,3.975,10.378,10.378,0,0,0,2.1.423c1.7,0,2.565,2.552,1.312,3.886-.548.583-.752.612-4.233.612h-3.658v4.5h4.233v3.175h4.5Z" transform="translate(942.01 991.817)" fill="#fff" stroke="#007bac" stroke-width="1"/>
    <path id="path21-2" data-name="path21" d="M116.1,199.915c-12.6-1.334-20.474-8.7-22.321-20.881-.463-3.056-.5-7.1-.07-8.529a7.317,7.317,0,0,1,3.837-4.015c1.457-.5,5.39-.56,8.434-.137a27.985,27.985,0,0,1,12.22,4.729l1.389,1.064v-12.03l-2.712-.448a30.679,30.679,0,0,1-16.573-8.3,31.385,31.385,0,0,1-4.546-40.146,38.536,38.536,0,0,1,7.419-7.884,35.1,35.1,0,0,1,13.5-5.826,41.7,41.7,0,0,1,11.413.133c12.8,2.76,22.269,12.177,24.82,24.695a35.646,35.646,0,0,1,0,12.6,31.545,31.545,0,0,1-26.195,24.84l-2.364.322v6.027c0,3.315.063,6.027.14,6.027a10.983,10.983,0,0,0,1.5-1.073,27.517,27.517,0,0,1,8.243-3.933c4.913-1.27,10.959-1.434,13.031-.353,2.739,1.429,3.716,3.815,3.452,8.431-.844,14.785-8.637,23.16-22.98,24.7a71.472,71.472,0,0,1-11.635-.01Zm3.224-4.63a11.525,11.525,0,0,0-.952-1.588,14.183,14.183,0,0,0-4.846-4.393c-.813-.457-1.518-.862-1.567-.9a14.581,14.581,0,0,1,.654-2.352c.71-2.181.774-2.276,1.412-2.121,1.471.357,4.464,2.42,6.533,4.5l2.161,2.174-.122-.958c-.807-6.324-2.363-9.978-5.649-13.271-3.514-3.522-7.892-5.206-14.23-5.474-4.552-.193-4.56-.187-4.56,3.241a27.6,27.6,0,0,0,1.555,9.077c2.12,5.81,6.176,9.412,12.574,11.167,2.384.654,7.038,1.246,7.038.9Zm12.646-.928a17.429,17.429,0,0,0,12.746-11.86,34.263,34.263,0,0,0,1.329-8.688c0-1.608-.09-2.01-.564-2.484-.537-.537-.742-.558-4.035-.418-7.08.3-12.257,2.63-15.809,7.115l-.839,1.059.817,2.424a32.516,32.516,0,0,1,1.736,10.416l.042,3.279,1.323-.176c.728-.1,2.192-.4,3.253-.667Zm-2.78-41.086a26.286,26.286,0,0,0,17.965-18.422c.53-1.945.61-2.838.593-6.615-.016-3.609-.117-4.723-.587-6.425a26.268,26.268,0,0,0-15.432-17.477,25.64,25.64,0,0,0-28.337,6.135,25.183,25.183,0,0,0-6.487,11.65,27.525,27.525,0,0,0-.118,12.019,26.218,26.218,0,0,0,16.155,18.451c3.648,1.328,5.241,1.567,9.821,1.469,3.507-.075,4.438-.189,6.426-.786Z" transform="translate(942.002 990.817)" fill="#007bac" stroke="#e6f6fc" stroke-width="3"/>
  </g>
</svg>
